HIERARCHY
ROOT Hips
{
  OFFSET 0.0 0.0 0.0
  CHANNELS 6 XPOSITION YPOSITION ZPOSITION ZROTATION XROTATION YROTATION 
  JOINT RightUpLeg
  {
    OFFSET -0.089458038 -0.086670642 0.001016508
    CHANNELS 3 ZROTATION XROTATION YROTATION 
    JOINT RightLeg
    {
      OFFSET 1.524e-006 -0.44256706 0.04075049
      CHANNELS 3 ZROTATION XROTATION YROTATION 
      JOINT RightFoot
      {
        OFFSET 0.001562862 -0.419119812 -0.041630854
        CHANNELS 3 ZROTATION XROTATION YROTATION 
        End Site
        {
          OFFSET 7.5692e-005 -0.04415155 0.084991702
        }
      }
    }
  }
  JOINT Spine
  {
    OFFSET 0.0 0.11890502 0.0
    CHANNELS 3 ZROTATION XROTATION YROTATION 
    JOINT Spine1
    {
      OFFSET 0.0 0.256575052 0.001270508
      CHANNELS 3 ZROTATION XROTATION YROTATION 
      End Site
      {
        OFFSET -0.002899918 0.215084406 0.0252476
      }
      JOINT RightArm
      {
        OFFSET -0.16272758 -0.05365633 0.001021842
        CHANNELS 3 ZROTATION XROTATION YROTATION 
        JOINT RightForeArm
        {
          OFFSET -0.263648698 -0.000263906 -0.014099794
          CHANNELS 3 ZROTATION XROTATION YROTATION 
          End Site
          {
            OFFSET -0.220319092 0.001914652 0.010174732
          }
        }
      }
      JOINT LeftArm
      {
        OFFSET 0.16272758 -0.05365633 0.001020826
        CHANNELS 3 ZROTATION XROTATION YROTATION 
        JOINT LeftForeArm
        {
          OFFSET 0.26260552 -0.000263144 -0.01410081
          CHANNELS 3 ZROTATION XROTATION YROTATION 
          End Site
          {
            OFFSET 0.220897958 0.001915922 0.01017524
          }
        }
      }
    }
  }
  JOINT LeftUpLeg
  {
    OFFSET 0.089458038 -0.086670642 0.001016508
    CHANNELS 3 ZROTATION XROTATION YROTATION 
    JOINT LeftLeg
    {
      OFFSET -3.048e-006 -0.442569346 0.040725598
      CHANNELS 3 ZROTATION XROTATION YROTATION 
      JOINT LeftFoot
      {
        OFFSET -0.002532888 -0.41911778 -0.041605708
        CHANNELS 3 ZROTATION XROTATION YROTATION 
        End Site
        {
          OFFSET -0.00040005 -0.044151042 0.084991194
        }
      }
    }
  }
}
MOTION
Frames: 13
Frame Time: 0.033333
0.63582296 0.988016518595 1.72109638 1.80080626854 2.69199014154 174.823076788 1.89124715122 1.70657153595 -1.28406969427 -0.692067743713 3.89229941175 0.0348804554101 -1.86043595443 -30.1640414881 0.139835049847 0.0852314293626 -0.254098831937 -0.17330170946 4.16091111501 3.88318068232 -1.10453614422 76.4786048537 -10.8397578072 9.14722156291 11.2200661552 23.3636695089 -1.62878155099 -83.6367250661 -12.0448891909 -16.3561686281 -16.9663930964 51.8777080483 8.11346901694 2.23523917004 2.51466156866 2.36357735733 0.644644352923 6.44062719627 3.98438701035 2.40059890362 -33.3260878097 -0.0828189852034 
0.6357747 0.988016518595 1.72109638 1.80080626854 2.69199014154 174.823076788 1.88918656853 1.68818616081 -1.26885085886 -0.719266037235 3.91639930735 0.0331774771407 -1.83691641147 -30.1817453385 0.138009254905 0.0870314576833 -0.261999146331 -0.146201533205 4.1444798143 3.88322080968 -1.07306391319 76.5048805914 -10.8817873762 9.11861416935 11.2010201727 23.4411477598 -1.62886329982 -83.6493814067 -12.0287964115 -16.379509092 -16.968616323 51.8977819743 8.12037946083 2.22363916095 2.51466156866 2.36357735733 0.650981807978 6.43489111802 4.00356362021 2.43888915755 -33.3261868474 -0.0859307767006 
0.63570866 0.988016518595 1.72109638 1.80088887114 2.69499499789 174.827065618 1.88033464336 1.68398410036 -1.27365013397 -0.720066876916 3.92969939321 0.033077769052 -1.85254815316 -30.1919428109 0.139296185274 0.098444430312 -0.271599430777 -0.117201310382 4.0875621404 3.88877161904 -1.03147510477 76.5914259184 -10.9805006852 9.08858182757 11.1507397352 23.5803897037 -1.62109353275 -83.6511231049 -12.0128410896 -16.3935502534 -16.9690397947 51.9130884282 8.12806000855 2.2118338193 2.52205524843 2.36359080426 0.650739336262 6.42068816653 4.00828242716 2.45319733665 -33.3262858851 -0.0870080055884 
0.6356604 0.988016518595 1.72109638 1.80122461763 2.70500549389 174.83903211 1.86203187082 1.69896772113 -1.29266836883 -0.699755441789 3.92839909595 0.0343807810486 -1.8789030784 -30.1911402637 0.141377525341 0.0971028650992 -0.283699564459 -0.100401232818 4.04303656409 3.91020048379 -1.00493960641 76.6877998876 -11.0798807914 9.0806468553 11.0886686835 23.6571712753 -1.59180066567 -83.6526120861 -12.0055652306 -16.4013810653 -16.9581763789 51.9091064279 8.12766044248 2.21079499022 2.53592416099 2.37412637106 0.635061384074 6.41817764513 3.98471400565 2.43210998136 -33.3306879421 -0.0853367836965 
0.63562992 0.988016518595 1.72108114 1.79960842412 2.71400746977 174.848006978 1.85709769948 1.70836414044 -1.29447548747 -0.700532642611 3.93449973553 0.0281663827911 -1.85771711226 -30.1913417542 0.139758103497 0.0747225630046 -0.305299637503 -0.0896012696678 4.04823476493 3.94400735886 -0.9948563262 76.7266021923 -11.1037616941 9.08726018596 11.0471095438 23.5829595624 -1.53492087798 -83.6720166536 -12.0244387508 -16.425344784 -16.9421647079 51.9191160702 8.129321886 2.21808258862 2.53619480723 2.38994231441 0.614460679764 6.43744091302 3.95779366881 2.42962742104 -33.3385870558 -0.0851051242238 
0.63559182 0.988016518595 1.72106336 1.80819653323 2.71203653331 174.852924715 1.87306945652 1.71037648492 -1.27526824847 -0.723113621533 3.94400010178 0.00892112752043 -1.81842730283 -30.1922467543 0.136751312818 0.0674255864337 -0.338499666274 -0.0803014001537 4.05854920435 3.98690820392 -0.988692934248 76.7099433609 -11.0426178406 9.08826166245 11.0346324957 23.4234473245 -1.45633645665 -83.7003414481 -12.080012585 -16.4662439567 -16.9219763763 51.9622896959 8.13556894777 2.23133379594 2.51938656546 2.40242363135 0.602497336628 6.46978570072 3.94224602383 2.46339310153 -33.3501847171 -0.0878698767441 
0.63552324 0.988016518595 1.72103034 1.82316617345 2.70510068965 174.861462451 1.89375041555 1.70918771184 -1.25876010813 -0.73778049228 3.93949986089 -0.0119281841698 -1.81892334532 -30.1936469431 0.136753260489 0.09614567812 -0.377799720984 -0.068901500934 4.02415749434 4.03572057771 -0.972612000899 76.6903748689 -10.9668881182 9.06981076018 11.030237269 23.3203866002 -1.37657777639 -83.7273275255 -12.1488301559 -16.5145572998 -16.8959857989 52.0160876809 8.14328962285 2.24795527473 2.50058348156 2.41309921702 0.596752293763 6.49865093393 3.92526062402 2.49364593035 -33.3665840013 -0.0902811669749 
0.63543688 0.988016518595 1.72096938 1.83012848409 2.70017377538 174.873989018 1.8948210477 1.70778581552 -1.26216068857 -0.734233916554 3.92699976094 -0.0199468320918 -1.84218846373 -30.1950437168 0.138606376189 0.127452023604 -0.414499848179 -0.0481012603843 3.96548446182 4.07955118228 -0.941485761634 76.6911808312 -10.9396091964 9.03411960667 11.0170652492 23.2947853436 -1.3189330075 -83.7589103202 -12.1999746125 -16.5729707852 -16.8661856836 52.0753327418 8.15203653386 2.25499250401 2.49676903435 2.42280128729 0.586295647669 6.50281265357 3.90304970261 2.49693146479 -33.3754837377 -0.0906496503445 
0.6353556 0.988016518595 1.72091096 1.81356805012 2.69620778335 174.878319358 1.86576136755 1.70667132074 -1.28446990067 -0.720194249271 3.92299983141 -0.00300704581048 -1.84288535647 -30.1961433772 0.138607923653 0.130471620887 -0.445799990464 -0.01650049973 3.92052644915 4.11009450759 -0.900215410791 76.6962693222 -10.9474400083 8.99576724071 11.0009502716 23.2489752648 -1.28462955634 -83.790172096 -12.2265064823 -16.6389948088 -16.8438765782 52.1670655974 8.16500962441 2.24045978245 2.51065032662 2.42613015074 0.56912103028 6.46824378552 3.89613883183 2.50082659361 -33.3612837745 -0.0908743128754 
0.63529718 0.988016518595 1.72087794 1.78704941378 2.68521011157 174.868456565 1.82237771349 1.69085548411 -1.31397226245 -0.698030872384 3.92359918051 0.0369866916501 -1.83443321082 -30.1966453961 0.137914432669 0.126200885026 -0.477700015456 0.0121004204965 3.88623164244 4.13183201151 -0.863644870428 76.69474619 -10.94249239 8.97219369656 10.9927992946 23.1614088246 -1.25757421654 -83.8020771157 -12.2392319785 -16.6877367462 -16.8406151629 52.2701502274 8.17917799807 2.21691825481 2.5248359892 2.42705756236 0.548459494597 6.41446372976 3.90951234223 2.52679796104 -33.3322827912 -0.0929984483464 
0.63524384 0.988016518595 1.72086016 1.7728185012 2.66624417035 174.858416187 1.79522493677 1.66914860932 -1.33266552972 -0.677277769478 3.92369736448 0.0683602351227 -1.84526909249 -30.1961433772 0.138839322992 0.136974067699 -0.503699984305 0.0198007650946 3.85861633386 4.14064551686 -0.85052018169 76.6939265673 -10.9218507046 8.97539449396 10.9941772852 23.1366118228 -1.24505277224 -83.7948029643 -12.2435315826 -16.6840040478 -16.8522657581 52.3007631353 8.18305925307 2.21142251385 2.51861774229 2.43975829912 0.522216253619 6.38451975356 3.91109395791 2.55404593352 -33.316279658 -0.095135383752 
0.6351778 0.988016518595 1.72084746 1.77798191077 2.65134859499 174.869098603 1.79775957729 1.6570538384 -1.3297561893 -0.677962656025 3.91789810698 0.0565321150584 -1.85214133002 -30.1943436224 0.139299573688 0.139021456923 -0.491599984026 0.00250009206979 3.86949938652 4.10732828097 -0.869733984073 76.701535398 -10.9363768094 9.0012783496 11.0002177338 23.2353917261 -1.28297515645 -83.7913742093 -12.2428152665 -16.6210553169 -16.8648128156 52.2284758282 8.17292495989 2.22917481583 2.498288538 2.46524450968 0.49151204534 6.39227372581 3.87512831617 2.56087057316 -33.3224780547 -0.0956208541215 
0.63511684 0.988016518595 1.72083222 1.78582723681 2.65446380158 174.899807133 1.8107113235 1.66575731367 -1.32115836851 -0.692601298881 3.91309989909 0.0161376209174 -1.83465519197 -30.1887428673 0.137903360292 0.108214255528 -0.427399967768 -0.0249006935916 3.92640126561 4.02499846138 -0.906034945408 76.7206394371 -11.0163634472 9.03433561141 11.0052438992 23.3858522558 -1.37900046583 -83.7984229645 -12.2380956058 -16.5298944896 -16.8728109671 52.1290760852 8.15914590701 2.24765837494 2.49255672863 2.4850526986 0.469999991023 6.40392602854 3.82449911206 2.55985650351 -33.3294789986 -0.0956285380843 
